<?xml version="1.0" encoding="UTF-8" standalone="no"?>
<!-- Uploaded to: SVG Repo, www.svgrepo.com, Generator: SVG Repo Mixer Tools -->
<svg width="20px" height="20px" viewBox="0 -0.5 21 21" version="1.1" xmlns="http://www.w3.org/2000/svg" xmlns:xlink="http://www.w3.org/1999/xlink">
    

    <g id="Page-1" stroke="none" stroke-width="1" fill="none" fill-rule="evenodd">
        <g id="Dribbble-Light-Preview" transform="translate(-179.000000, -400.000000)" fill="red">
            <g id="icons" transform="translate(56.000000, 160.000000)">
                <path d="M141.9,243 C141.9,242.448 141.4296,242 140.85,242 L126.15,242 C125.5704,242 125.1,242.448 125.1,243 L125.1,257 C125.1,257.552 125.5704,258 126.15,258 L140.85,258 C141.4296,258 141.9,257.552 141.9,257 L141.9,243 Z M144,242 L144,258 C144,259.105 143.06025,260 141.9,260 L125.1,260 C123.93975,260 123,259.105 123,258 L123,242 C123,240.895 123.93975,240 125.1,240 L141.9,240 C143.06025,240 144,240.895 144,242 L144,242 Z" id="done-[#1477]">

</path>
            </g>
        </g>
    </g>
</svg>

